
<!-- Generator: Adobe Illustrator 16.0.0, SVG Export Plug-In . SVG Version:
6.00 Build 0) -->
<svg contentScriptType="text/ecmascript" zoomAndPan="magnify"
     xmlnsXlink="http://www.w3.org/1999/xlink" contentStyleType="text/css"
     id="Filled_Version" enable-background="new 0 0 24 24" version="1.1"
     xmlSpace="preserve" width="24px" preserveAspectRatio="xMidYMid meet"
     viewBox="0 0 24 24" height="24px" xmlns="http://www.w3.org/2000/svg"
     x="0px" y="0px">
    <path fill="#3e3832"
          d="M23.936,22.625l-5-19.364c-0.068-0.269-0.341-0.429-0.608-0.36l-2.905,0.75c-0.129,0.033-0.238,0.116-0.306,0.23  s-0.087,0.25-0.054,0.38L16.028,8h-4.98V0.5c0-0.276-0.225-0.5-0.5-0.5h-6c-0.276,0-0.5,0.224-0.5,0.5V3h-3.5  c-0.276,0-0.5,0.224-0.5,0.5v20c0,0.276,0.224,0.5,0.5,0.5h4h6h6c0.275,0,0.5-0.224,0.5-0.5V11.946l3.016,11.679  C20.122,23.851,20.325,24,20.547,24c0.042,0,0.084-0.005,0.126-0.016l2.904-0.75C23.845,23.165,24.005,22.894,23.936,22.625z   M3.048,20.5c0,0.276-0.225,0.5-0.5,0.5c-0.276,0-0.5-0.224-0.5-0.5v-14c0-0.276,0.224-0.5,0.5-0.5c0.275,0,0.5,0.224,0.5,0.5V20.5z   M7.048,2.5c0-0.276,0.224-0.5,0.5-0.5c0.275,0,0.5,0.224,0.5,0.5v13c0,0.276-0.225,0.5-0.5,0.5c-0.276,0-0.5-0.224-0.5-0.5V2.5z   M9.048,21.5c0,0.276-0.225,0.5-0.5,0.5h-2c-0.276,0-0.5-0.224-0.5-0.5v-4c0-0.276,0.224-0.5,0.5-0.5h2c0.275,0,0.5,0.224,0.5,0.5  V21.5z M13.048,10.5c0-0.276,0.224-0.5,0.5-0.5c0.275,0,0.5,0.224,0.5,0.5v9c0,0.276-0.225,0.5-0.5,0.5c-0.276,0-0.5-0.224-0.5-0.5  V10.5z M14.548,22h-2c-0.276,0-0.5-0.224-0.5-0.5c0-0.276,0.224-0.5,0.5-0.5h2c0.275,0,0.5,0.224,0.5,0.5  C15.048,21.776,14.823,22,14.548,22z"/></svg>
